# xmcd
#
# Track frame offsets:
#	150
#	20702
#	44843
#	61424
#	84371
#	116651
#	134350
#	174077
#	200700
#	221397
#	245762
#	272029
#
# Disc length: 3978 seconds
#
# Revision: 1
# Processed by: cddbd v1.5.2PL0 Copyright (c) Steve Scherf et al.
# Submitted via: audiograbber 1.82.02
#
DISCID=b30f880c
DTITLE=Jimmy Smith - Dot Com Blues
DYEAR=2006
DGENRE=Blues
TTITLE0=Jimmy Smith - Dr. John - 01 - Only In It For The Money with Dr. John
TTITLE1=Jimmy Smith - 02 - Eight Counts For Rita vol 1
TTITLE2=Jimmy Smith - 03 - Eight Counts For Rita vol 2
TTITLE3=Jimmy Smith - Taj Mahal - 04 - Strut with Taj Mahal
TTITLE4=Jimmy Smith - Russell Malone - 05 - C. C. Rider
TTITLE5=Jimmy Smith - Etta James - 06 - I Just Wanna Make Love To You
TTITLE6=Jimmy Smith - 07 - Mood Indigo
TTITLE7=Jimmy Smith - Keb' Mo'  - 08 - Over And Ove
TTITLE8=Jimmy Smith - B. B. King - 09 - Three O Clock Blues
TTITLE9=Jimmy Smith - 10 - Dot Com Blues
TTITLE10=Jimmy Smith - 11 - Mr. Johnson with Dr. John
TTITLE11=Jimmy Smith - Russell Malone - 12 - Tuition Blues
EXTD=
EXTT0=
EXTT1=
EXTT2=
EXTT3=
EXTT4=
EXTT5=
EXTT6=
EXTT7=
EXTT8=
EXTT9=
EXTT10=
EXTT11=
PLAYORDER=
